<mxfile host="Electron" modified="2023-05-28T18:12:14.611Z" agent="Mozilla/5.0 (Windows NT 10.0; Win64; x64) AppleWebKit/537.36 (KHTML, like Gecko) draw.io/21.1.2 Chrome/106.0.5249.199 Electron/21.4.3 Safari/537.36" etag="TO0LdRWr8OGVXVzeIYXZ" version="21.1.2" type="device">
  <diagram name="Page-1" id="jjMU-v9KfTywZbRT0Ahr">
    <mxGraphModel dx="2071" dy="1931" grid="1" gridSize="10" guides="1" tooltips="1" connect="1" arrows="1" fold="1" page="1" pageScale="1" pageWidth="850" pageHeight="1100" math="0" shadow="0">
      <root>
        <mxCell id="0" />
        <mxCell id="1" parent="0" />
        <mxCell id="BeQkOO_lqinJAcKsULNb-1" value="Equipment" style="swimlane;fontStyle=1;align=center;verticalAlign=top;childLayout=stackLayout;horizontal=1;startSize=26;horizontalStack=0;resizeParent=1;resizeParentMax=0;resizeLast=0;collapsible=1;marginBottom=0;" parent="1" vertex="1">
          <mxGeometry x="60" y="120" width="160" height="124" as="geometry" />
        </mxCell>
        <mxCell id="BeQkOO_lqinJAcKsULNb-2" value="+ name&#xa;+ price&#xa;+ weight" style="text;strokeColor=none;fillColor=none;align=left;verticalAlign=top;spacingLeft=4;spacingRight=4;overflow=hidden;rotatable=0;points=[[0,0.5],[1,0.5]];portConstraint=eastwest;fontStyle=0" parent="BeQkOO_lqinJAcKsULNb-1" vertex="1">
          <mxGeometry y="26" width="160" height="64" as="geometry" />
        </mxCell>
        <mxCell id="BeQkOO_lqinJAcKsULNb-3" value="" style="line;strokeWidth=1;fillColor=none;align=left;verticalAlign=middle;spacingTop=-1;spacingLeft=3;spacingRight=3;rotatable=0;labelPosition=right;points=[];portConstraint=eastwest;strokeColor=inherit;" parent="BeQkOO_lqinJAcKsULNb-1" vertex="1">
          <mxGeometry y="90" width="160" height="8" as="geometry" />
        </mxCell>
        <mxCell id="BeQkOO_lqinJAcKsULNb-4" value="+ accept(Visitor)" style="text;strokeColor=none;fillColor=none;align=left;verticalAlign=top;spacingLeft=4;spacingRight=4;overflow=hidden;rotatable=0;points=[[0,0.5],[1,0.5]];portConstraint=eastwest;fontStyle=1" parent="BeQkOO_lqinJAcKsULNb-1" vertex="1">
          <mxGeometry y="98" width="160" height="26" as="geometry" />
        </mxCell>
        <mxCell id="BeQkOO_lqinJAcKsULNb-5" value="CompositeEquipment" style="swimlane;fontStyle=1;align=center;verticalAlign=top;childLayout=stackLayout;horizontal=1;startSize=26;horizontalStack=0;resizeParent=1;resizeParentMax=0;resizeLast=0;collapsible=1;marginBottom=0;" parent="1" vertex="1">
          <mxGeometry x="300" y="124" width="160" height="130" as="geometry" />
        </mxCell>
        <mxCell id="BeQkOO_lqinJAcKsULNb-6" value="+ name&#xa;- items: List of Eqipment" style="text;strokeColor=none;fillColor=none;align=left;verticalAlign=top;spacingLeft=4;spacingRight=4;overflow=hidden;rotatable=0;points=[[0,0.5],[1,0.5]];portConstraint=eastwest;" parent="BeQkOO_lqinJAcKsULNb-5" vertex="1">
          <mxGeometry y="26" width="160" height="54" as="geometry" />
        </mxCell>
        <mxCell id="BeQkOO_lqinJAcKsULNb-7" value="" style="line;strokeWidth=1;fillColor=none;align=left;verticalAlign=middle;spacingTop=-1;spacingLeft=3;spacingRight=3;rotatable=0;labelPosition=right;points=[];portConstraint=eastwest;strokeColor=inherit;" parent="BeQkOO_lqinJAcKsULNb-5" vertex="1">
          <mxGeometry y="80" width="160" height="8" as="geometry" />
        </mxCell>
        <mxCell id="BeQkOO_lqinJAcKsULNb-8" value="+ add(Equipment)&#xa;+ iterator()" style="text;strokeColor=none;fillColor=none;align=left;verticalAlign=top;spacingLeft=4;spacingRight=4;overflow=hidden;rotatable=0;points=[[0,0.5],[1,0.5]];portConstraint=eastwest;" parent="BeQkOO_lqinJAcKsULNb-5" vertex="1">
          <mxGeometry y="88" width="160" height="42" as="geometry" />
        </mxCell>
        <mxCell id="BeQkOO_lqinJAcKsULNb-9" value="" style="endArrow=diamondThin;endFill=0;endSize=24;html=1;rounded=0;exitX=1;exitY=0.5;exitDx=0;exitDy=0;entryX=0;entryY=0.5;entryDx=0;entryDy=0;" parent="1" source="BeQkOO_lqinJAcKsULNb-2" target="BeQkOO_lqinJAcKsULNb-6" edge="1">
          <mxGeometry width="160" relative="1" as="geometry">
            <mxPoint x="120" y="340" as="sourcePoint" />
            <mxPoint x="280" y="340" as="targetPoint" />
          </mxGeometry>
        </mxCell>
        <mxCell id="BeQkOO_lqinJAcKsULNb-49" style="edgeStyle=orthogonalEdgeStyle;rounded=0;orthogonalLoop=1;jettySize=auto;html=1;entryX=0.865;entryY=-0.011;entryDx=0;entryDy=0;entryPerimeter=0;dashed=1;" parent="1" source="BeQkOO_lqinJAcKsULNb-10" target="BeQkOO_lqinJAcKsULNb-1" edge="1">
          <mxGeometry relative="1" as="geometry">
            <Array as="points">
              <mxPoint x="680" y="80" />
              <mxPoint x="198" y="80" />
            </Array>
          </mxGeometry>
        </mxCell>
        <mxCell id="BeQkOO_lqinJAcKsULNb-10" value="EquipmentVisitor" style="swimlane;fontStyle=3;align=center;verticalAlign=top;childLayout=stackLayout;horizontal=1;startSize=26;horizontalStack=0;resizeParent=1;resizeParentMax=0;resizeLast=0;collapsible=1;marginBottom=0;" parent="1" vertex="1">
          <mxGeometry x="600" y="120" width="160" height="110" as="geometry" />
        </mxCell>
        <mxCell id="BeQkOO_lqinJAcKsULNb-12" value="" style="line;strokeWidth=1;fillColor=none;align=left;verticalAlign=middle;spacingTop=-1;spacingLeft=3;spacingRight=3;rotatable=0;labelPosition=right;points=[];portConstraint=eastwest;strokeColor=inherit;" parent="BeQkOO_lqinJAcKsULNb-10" vertex="1">
          <mxGeometry y="26" width="160" height="8" as="geometry" />
        </mxCell>
        <mxCell id="BeQkOO_lqinJAcKsULNb-13" value="+ visit_chair(Equipment)&#xa;+ visit_table(Equipment)&#xa;+ visit_computer(Equipment)" style="text;strokeColor=none;fillColor=none;align=left;verticalAlign=top;spacingLeft=4;spacingRight=4;overflow=hidden;rotatable=0;points=[[0,0.5],[1,0.5]];portConstraint=eastwest;fontStyle=2" parent="BeQkOO_lqinJAcKsULNb-10" vertex="1">
          <mxGeometry y="34" width="160" height="76" as="geometry" />
        </mxCell>
        <mxCell id="EPsBRRnPRsg1jrpJwq0W-1" style="edgeStyle=orthogonalEdgeStyle;rounded=0;orthogonalLoop=1;jettySize=auto;html=1;endArrow=blockThin;endFill=0;endSize=16;" edge="1" parent="1" source="BeQkOO_lqinJAcKsULNb-14" target="BeQkOO_lqinJAcKsULNb-2">
          <mxGeometry relative="1" as="geometry" />
        </mxCell>
        <mxCell id="BeQkOO_lqinJAcKsULNb-14" value="Table" style="swimlane;fontStyle=1;align=center;verticalAlign=top;childLayout=stackLayout;horizontal=1;startSize=26;horizontalStack=0;resizeParent=1;resizeParentMax=0;resizeLast=0;collapsible=1;marginBottom=0;" parent="1" vertex="1">
          <mxGeometry x="-90" y="320" width="160" height="60" as="geometry" />
        </mxCell>
        <mxCell id="BeQkOO_lqinJAcKsULNb-16" value="" style="line;strokeWidth=1;fillColor=none;align=left;verticalAlign=middle;spacingTop=-1;spacingLeft=3;spacingRight=3;rotatable=0;labelPosition=right;points=[];portConstraint=eastwest;strokeColor=inherit;" parent="BeQkOO_lqinJAcKsULNb-14" vertex="1">
          <mxGeometry y="26" width="160" height="8" as="geometry" />
        </mxCell>
        <mxCell id="BeQkOO_lqinJAcKsULNb-17" value="+ accept(Visitor)" style="text;strokeColor=none;fillColor=none;align=left;verticalAlign=top;spacingLeft=4;spacingRight=4;overflow=hidden;rotatable=0;points=[[0,0.5],[1,0.5]];portConstraint=eastwest;" parent="BeQkOO_lqinJAcKsULNb-14" vertex="1">
          <mxGeometry y="34" width="160" height="26" as="geometry" />
        </mxCell>
        <mxCell id="BeQkOO_lqinJAcKsULNb-26" style="edgeStyle=orthogonalEdgeStyle;rounded=0;orthogonalLoop=1;jettySize=auto;html=1;endArrow=blockThin;endFill=0;endSize=16;" parent="1" source="BeQkOO_lqinJAcKsULNb-18" target="BeQkOO_lqinJAcKsULNb-4" edge="1">
          <mxGeometry relative="1" as="geometry" />
        </mxCell>
        <mxCell id="BeQkOO_lqinJAcKsULNb-18" value="Chair" style="swimlane;fontStyle=1;align=center;verticalAlign=top;childLayout=stackLayout;horizontal=1;startSize=26;horizontalStack=0;resizeParent=1;resizeParentMax=0;resizeLast=0;collapsible=1;marginBottom=0;" parent="1" vertex="1">
          <mxGeometry x="200" y="310" width="160" height="60" as="geometry" />
        </mxCell>
        <mxCell id="BeQkOO_lqinJAcKsULNb-19" value="" style="line;strokeWidth=1;fillColor=none;align=left;verticalAlign=middle;spacingTop=-1;spacingLeft=3;spacingRight=3;rotatable=0;labelPosition=right;points=[];portConstraint=eastwest;strokeColor=inherit;" parent="BeQkOO_lqinJAcKsULNb-18" vertex="1">
          <mxGeometry y="26" width="160" height="8" as="geometry" />
        </mxCell>
        <mxCell id="BeQkOO_lqinJAcKsULNb-20" value="+ accept(Visitor)" style="text;strokeColor=none;fillColor=none;align=left;verticalAlign=top;spacingLeft=4;spacingRight=4;overflow=hidden;rotatable=0;points=[[0,0.5],[1,0.5]];portConstraint=eastwest;" parent="BeQkOO_lqinJAcKsULNb-18" vertex="1">
          <mxGeometry y="34" width="160" height="26" as="geometry" />
        </mxCell>
        <mxCell id="EPsBRRnPRsg1jrpJwq0W-2" style="edgeStyle=orthogonalEdgeStyle;rounded=0;orthogonalLoop=1;jettySize=auto;html=1;entryX=0.435;entryY=1;entryDx=0;entryDy=0;entryPerimeter=0;endArrow=blockThin;endFill=0;endSize=16;" edge="1" parent="1" source="BeQkOO_lqinJAcKsULNb-21" target="BeQkOO_lqinJAcKsULNb-4">
          <mxGeometry relative="1" as="geometry" />
        </mxCell>
        <mxCell id="BeQkOO_lqinJAcKsULNb-21" value="Computer" style="swimlane;fontStyle=1;align=center;verticalAlign=top;childLayout=stackLayout;horizontal=1;startSize=26;horizontalStack=0;resizeParent=1;resizeParentMax=0;resizeLast=0;collapsible=1;marginBottom=0;" parent="1" vertex="1">
          <mxGeometry x="50" y="410" width="160" height="60" as="geometry" />
        </mxCell>
        <mxCell id="BeQkOO_lqinJAcKsULNb-22" value="" style="line;strokeWidth=1;fillColor=none;align=left;verticalAlign=middle;spacingTop=-1;spacingLeft=3;spacingRight=3;rotatable=0;labelPosition=right;points=[];portConstraint=eastwest;strokeColor=inherit;" parent="BeQkOO_lqinJAcKsULNb-21" vertex="1">
          <mxGeometry y="26" width="160" height="8" as="geometry" />
        </mxCell>
        <mxCell id="BeQkOO_lqinJAcKsULNb-23" value="+ accept(Visitor)" style="text;strokeColor=none;fillColor=none;align=left;verticalAlign=top;spacingLeft=4;spacingRight=4;overflow=hidden;rotatable=0;points=[[0,0.5],[1,0.5]];portConstraint=eastwest;" parent="BeQkOO_lqinJAcKsULNb-21" vertex="1">
          <mxGeometry y="34" width="160" height="26" as="geometry" />
        </mxCell>
        <mxCell id="BeQkOO_lqinJAcKsULNb-43" style="edgeStyle=orthogonalEdgeStyle;rounded=0;orthogonalLoop=1;jettySize=auto;html=1;entryX=0.114;entryY=-0.012;entryDx=0;entryDy=0;entryPerimeter=0;endArrow=blockThin;endFill=0;endSize=16;" parent="1" source="BeQkOO_lqinJAcKsULNb-31" target="BeQkOO_lqinJAcKsULNb-39" edge="1">
          <mxGeometry relative="1" as="geometry">
            <Array as="points">
              <mxPoint x="750" y="60" />
              <mxPoint x="826" y="60" />
            </Array>
          </mxGeometry>
        </mxCell>
        <mxCell id="BeQkOO_lqinJAcKsULNb-31" value="PriceVisitor" style="swimlane;fontStyle=1;align=center;verticalAlign=top;childLayout=stackLayout;horizontal=1;startSize=26;horizontalStack=0;resizeParent=1;resizeParentMax=0;resizeLast=0;collapsible=1;marginBottom=0;" parent="1" vertex="1">
          <mxGeometry x="670" y="-70" width="160" height="110" as="geometry" />
        </mxCell>
        <mxCell id="BeQkOO_lqinJAcKsULNb-32" value="" style="line;strokeWidth=1;fillColor=none;align=left;verticalAlign=middle;spacingTop=-1;spacingLeft=3;spacingRight=3;rotatable=0;labelPosition=right;points=[];portConstraint=eastwest;strokeColor=inherit;" parent="BeQkOO_lqinJAcKsULNb-31" vertex="1">
          <mxGeometry y="26" width="160" height="8" as="geometry" />
        </mxCell>
        <mxCell id="BeQkOO_lqinJAcKsULNb-33" value="+ visit_chair(Equipment)&#xa;+ visit_table(Equipment)&#xa;+ visit_computer(Equipment)" style="text;strokeColor=none;fillColor=none;align=left;verticalAlign=top;spacingLeft=4;spacingRight=4;overflow=hidden;rotatable=0;points=[[0,0.5],[1,0.5]];portConstraint=eastwest;fontStyle=0" parent="BeQkOO_lqinJAcKsULNb-31" vertex="1">
          <mxGeometry y="34" width="160" height="76" as="geometry" />
        </mxCell>
        <mxCell id="BeQkOO_lqinJAcKsULNb-44" style="edgeStyle=orthogonalEdgeStyle;rounded=0;orthogonalLoop=1;jettySize=auto;html=1;entryX=0.75;entryY=0;entryDx=0;entryDy=0;endArrow=blockThin;endFill=0;endSize=16;" parent="1" source="BeQkOO_lqinJAcKsULNb-34" target="BeQkOO_lqinJAcKsULNb-39" edge="1">
          <mxGeometry relative="1" as="geometry" />
        </mxCell>
        <mxCell id="BeQkOO_lqinJAcKsULNb-34" value="WeightVisitor" style="swimlane;fontStyle=1;align=center;verticalAlign=top;childLayout=stackLayout;horizontal=1;startSize=26;horizontalStack=0;resizeParent=1;resizeParentMax=0;resizeLast=0;collapsible=1;marginBottom=0;" parent="1" vertex="1">
          <mxGeometry x="910" y="-80" width="160" height="110" as="geometry" />
        </mxCell>
        <mxCell id="BeQkOO_lqinJAcKsULNb-35" value="" style="line;strokeWidth=1;fillColor=none;align=left;verticalAlign=middle;spacingTop=-1;spacingLeft=3;spacingRight=3;rotatable=0;labelPosition=right;points=[];portConstraint=eastwest;strokeColor=inherit;" parent="BeQkOO_lqinJAcKsULNb-34" vertex="1">
          <mxGeometry y="26" width="160" height="8" as="geometry" />
        </mxCell>
        <mxCell id="BeQkOO_lqinJAcKsULNb-36" value="+ visit_chair(Equipment)&#xa;+ visit_table(Equipment)&#xa;+ visit_computer(Equipment)" style="text;strokeColor=none;fillColor=none;align=left;verticalAlign=top;spacingLeft=4;spacingRight=4;overflow=hidden;rotatable=0;points=[[0,0.5],[1,0.5]];portConstraint=eastwest;fontStyle=0" parent="BeQkOO_lqinJAcKsULNb-34" vertex="1">
          <mxGeometry y="34" width="160" height="76" as="geometry" />
        </mxCell>
        <mxCell id="BeQkOO_lqinJAcKsULNb-51" style="edgeStyle=orthogonalEdgeStyle;rounded=0;orthogonalLoop=1;jettySize=auto;html=1;entryX=0.5;entryY=0;entryDx=0;entryDy=0;dashed=1;" parent="1" source="BeQkOO_lqinJAcKsULNb-39" target="BeQkOO_lqinJAcKsULNb-5" edge="1">
          <mxGeometry relative="1" as="geometry">
            <Array as="points">
              <mxPoint x="380" y="104" />
            </Array>
          </mxGeometry>
        </mxCell>
        <mxCell id="BeQkOO_lqinJAcKsULNb-39" value="CountingVisitor" style="swimlane;fontStyle=1;align=center;verticalAlign=top;childLayout=stackLayout;horizontal=1;startSize=26;horizontalStack=0;resizeParent=1;resizeParentMax=0;resizeLast=0;collapsible=1;marginBottom=0;" parent="1" vertex="1">
          <mxGeometry x="800" y="80" width="230" height="110" as="geometry" />
        </mxCell>
        <mxCell id="BeQkOO_lqinJAcKsULNb-40" value="" style="line;strokeWidth=1;fillColor=none;align=left;verticalAlign=middle;spacingTop=-1;spacingLeft=3;spacingRight=3;rotatable=0;labelPosition=right;points=[];portConstraint=eastwest;strokeColor=inherit;" parent="BeQkOO_lqinJAcKsULNb-39" vertex="1">
          <mxGeometry y="26" width="230" height="8" as="geometry" />
        </mxCell>
        <mxCell id="BeQkOO_lqinJAcKsULNb-41" value="+ get_total(CompositeEquipment)" style="text;strokeColor=none;fillColor=none;align=left;verticalAlign=top;spacingLeft=4;spacingRight=4;overflow=hidden;rotatable=0;points=[[0,0.5],[1,0.5]];portConstraint=eastwest;fontStyle=0" parent="BeQkOO_lqinJAcKsULNb-39" vertex="1">
          <mxGeometry y="34" width="230" height="76" as="geometry" />
        </mxCell>
        <mxCell id="BeQkOO_lqinJAcKsULNb-42" style="edgeStyle=orthogonalEdgeStyle;rounded=0;orthogonalLoop=1;jettySize=auto;html=1;entryX=0.977;entryY=0.667;entryDx=0;entryDy=0;entryPerimeter=0;endSize=16;endArrow=blockThin;endFill=0;" parent="1" edge="1">
          <mxGeometry relative="1" as="geometry">
            <mxPoint x="802" y="151.30000000000018" as="sourcePoint" />
            <mxPoint x="758.3200000000002" y="151.33599999999979" as="targetPoint" />
            <Array as="points">
              <mxPoint x="782" y="152" />
            </Array>
          </mxGeometry>
        </mxCell>
        <mxCell id="BeQkOO_lqinJAcKsULNb-48" style="edgeStyle=orthogonalEdgeStyle;rounded=0;orthogonalLoop=1;jettySize=auto;html=1;entryX=1.006;entryY=0.754;entryDx=0;entryDy=0;entryPerimeter=0;endArrow=blockThin;endFill=0;endSize=16;" parent="1" source="BeQkOO_lqinJAcKsULNb-45" target="BeQkOO_lqinJAcKsULNb-13" edge="1">
          <mxGeometry relative="1" as="geometry" />
        </mxCell>
        <mxCell id="BeQkOO_lqinJAcKsULNb-50" style="edgeStyle=orthogonalEdgeStyle;rounded=0;orthogonalLoop=1;jettySize=auto;html=1;entryX=0.627;entryY=1.048;entryDx=0;entryDy=0;dashed=1;entryPerimeter=0;" parent="1" source="BeQkOO_lqinJAcKsULNb-45" target="BeQkOO_lqinJAcKsULNb-8" edge="1">
          <mxGeometry relative="1" as="geometry">
            <Array as="points">
              <mxPoint x="400" y="310" />
            </Array>
          </mxGeometry>
        </mxCell>
        <mxCell id="BeQkOO_lqinJAcKsULNb-45" value="ListVisitor" style="swimlane;fontStyle=1;align=center;verticalAlign=top;childLayout=stackLayout;horizontal=1;startSize=26;horizontalStack=0;resizeParent=1;resizeParentMax=0;resizeLast=0;collapsible=1;marginBottom=0;" parent="1" vertex="1">
          <mxGeometry x="810" y="244" width="230" height="110" as="geometry" />
        </mxCell>
        <mxCell id="BeQkOO_lqinJAcKsULNb-46" value="" style="line;strokeWidth=1;fillColor=none;align=left;verticalAlign=middle;spacingTop=-1;spacingLeft=3;spacingRight=3;rotatable=0;labelPosition=right;points=[];portConstraint=eastwest;strokeColor=inherit;" parent="BeQkOO_lqinJAcKsULNb-45" vertex="1">
          <mxGeometry y="26" width="230" height="8" as="geometry" />
        </mxCell>
        <mxCell id="BeQkOO_lqinJAcKsULNb-47" value="+ work(CompositeEquipment)&#xa;+ visit_chair(Equipment)&#xa;+ visit_table(Equipment)&#xa;+ visit_computer(Equipment)" style="text;strokeColor=none;fillColor=none;align=left;verticalAlign=top;spacingLeft=4;spacingRight=4;overflow=hidden;rotatable=0;points=[[0,0.5],[1,0.5]];portConstraint=eastwest;fontStyle=0" parent="BeQkOO_lqinJAcKsULNb-45" vertex="1">
          <mxGeometry y="34" width="230" height="76" as="geometry" />
        </mxCell>
      </root>
    </mxGraphModel>
  </diagram>
</mxfile>
